<?xml version="1.0" standalone="no"?>
<!DOCTYPE svg PUBLIC "-//W3C//DTD SVG 20010904//EN" "http://www.w3.org/TR/2001/REC-SVG-20010904/DTD/svg10.dtd">
<svg version="1.0" xmlns="http://www.w3.org/2000/svg" width="64.000000pt" height="64.000000pt" viewBox="0 0 64.000000 64.000000" preserveAspectRatio="xMidYMid meet">
	<metadata> Created by potrace 1.16, written by Peter Selinger 2001-2019 </metadata>
	<g transform="translate(0.000000,64.000000) scale(0.100000,-0.100000)" fill="#000000" stroke="none">
		<path d="M375 595 c-190 -59 -185 -52 -185 -246 l0 -149 -36 0 c-49 0 -103
-27 -125 -64 -24 -40 -24 -67 1 -99 41 -52 145 -44 194 14 25 30 26 34 26 174
0 113 3 145 15 155 19 16 256 90 267 84 4 -3 8 -48 8 -100 l0 -94 -45 0 c-112
0 -185 -101 -120 -165 19 -20 34 -25 77 -25 66 0 114 27 134 75 17 41 20 417
4 459 -13 36 -46 33 -215 -19z" />
	</g>
</svg>